#!OML:ASF H:\Terrain\Patient Classification 1\Animal1\Tuesday\Animal1.ASF
:FULLY-SPECIFIED
:DEGREES
1510
root 8.48871 15.5444 -13.6088 -352.2 4.8045 -6.93877
lowerback 16.6067 1.3437 0.122605
upperback 11.3462 1.8011 -1.1171
thorax 2.8475 0.960609 -1.4898
lowerneck -6.75449 0.177022 -2.60253
upperneck -16.5334 1.10765 5.87256
head -4.36249 0.512613 2.44319
rclavicle -7.15625e-015 5.56597e-015
rhumerus -25.5417 46.3627 -20.0768
rradius 26.8489
rwrist -39.4323
rhand -9.63301 7.3576
rfingers 7.12502
rthumb 16.337 -21.9743
lclavicle -7.15625e-015 5.56597e-015
lhumerus -1.87469 -28.9601 1.27766
lradius 33.1406
lwrist 5.07176
lhand 18.2865 56.9477
lfingers 7.12502
lthumb 42.9356 81.2164
rfemur -35.8552 -6.89838 14.6623
rtibia 54.0141
rfoot -0.80856 -7.55762
rtoes -15.7654
lfemur -37.3154 4.51186 -10.0542
ltibia 52.1145
lfoot -22.7929 1.79491
ltoes -20.3067
1511
root 8.4881 15.5365 -13.6103 -352.289 4.77114 -6.85846
lowerback 16.5989 1.27014 0.146267
upperback 11.4391 1.70953 -1.11416
thorax 2.95098 0.916869 -1.48614
lowerneck -7.14503 0.160635 -2.46359
upperneck -16.3138 1.08301 5.94605
head -4.20672 0.496277 2.43739
rclavicle 8.74653e-015 -7.95139e-015
rhumerus -23.1868 41.0355 -16.5081
rradius 24.589
rwrist -35.8969
rhand -9.8221 7.51075
rfingers 7.12502
rthumb 16.155 -21.836
lclavicle 8.74653e-015 -7.95139e-015
lhumerus -2.05986 -22.0152 1.25499
lradius 30.3132
lwrist -0.478807
lhand 18.1547 57.0907
lfingers 7.12502
lthumb 42.8123 81.4026
rfemur -35.7979 -7.22006 14.8608
rtibia 54.15
rfoot -0.890379 -8.324
rtoes -14.2092
lfemur -37.3436 4.53262 -10.1307
ltibia 52.4268
lfoot -22.7711 1.49208
ltoes -18.9396
1512
root 8.48641 15.5121 -13.6105 -352.299 4.6777 -6.2536
lowerback 16.6367 1.2665 -0.363362
upperback 11.4669 1.6421 -1.20319
thorax 2.94814 0.858023 -1.28495
lowerneck -7.54823 0.144845 -2.38751
upperneck -16.0032 1.04916 5.96522
head -4.016 0.482481 2.42233
rclavicle 2.78299e-014 -1.03368e-014
rhumerus -21.3037 35.0779 -13.1662
rradius 22.6741
rwrist -31.6326
rhand -10.2604 7.57008
rfingers 7.12502
rthumb 15.7329 -21.8104
lclavicle 2.78299e-014 -1.03368e-014
lhumerus -1.95493 -15.4723 1.02734
lradius 27.7602
lwrist -5.22036
lhand 17.3553 57.5566
lfingers 7.12502
lthumb 42.0639 82.1252
rfemur -35.8931 -7.53861 14.3939
rtibia 54.3517
rfoot -0.999933 -8.72259
rtoes -12.4109
lfemur -37.3882 4.44189 -10.7827
ltibia 52.7558
lfoot -22.8419 1.00074
ltoes -16.0668
1513
root 8.48235 15.4896 -13.6138 -352.342 4.4671 -5.98754
lowerback 16.732 1.26287 -0.684199
upperback 11.4409 1.5937 -1.16078
thorax 2.85935 0.813276 -1.05606
lowerneck -7.54059 0.196674 -2.67819
upperneck -15.9255 1.15688 6.22322
head -4.00278 0.544334 2.56355
rclavicle 0 -1.43125e-014
rhumerus -19.6581 29.0531 -10.008
rradius 21.156
rwrist -27.0997
rhand -10.6866 6.52773
rfingers 7.12502
rthumb 15.3223 -22.8846
lclavicle 0 -1.43125e-014
lhumerus -1.84172 -9.58779 0.634103
lradius 25.46
lwrist -9.21515
lhand 16.0719 58.3361
lfingers 7.12502
lthumb 40.8596 83.2969
rfemur -35.9573 -7.59278 14.2519
rtibia 54.4488
rfoot -1.36199 -8.96451
rtoes -9.35475
lfemur -37.4299 4.54115 -11.0737
ltibia 53.0521
lfoot -23.0467 1.03413
ltoes -15.6615
1514
root 8.47646 15.4673 -13.6205 -352.501 4.26248 -6.12461
lowerback 16.8777 1.25275 -0.543227
upperback 11.4276 1.59346 -1.05455
thorax 2.76963 0.816119 -1.02706
lowerneck -7.36867 0.194163 -2.99173
upperneck -15.8164 1.19998 6.59953
head -4.00756 0.5685 2.75227
rclavicle -1.35174e-014 4.77083e-015
rhumerus -18.5755 24.5398 -7.34489
rradius 20.1473
rwrist -24.0576
rhand -11.0302 5.08632
rfingers 7.12502
rthumb 14.9914 -24.351
lclavicle -1.35174e-014 4.77083e-015
lhumerus -1.71179 -4.65816 -0.0847744
lradius 23.6503
lwrist -12.4315
lhand 14.989 59.5504
lfingers 7.12502
lthumb 39.8413 84.8241
rfemur -35.7877 -7.47153 14.5151
rtibia 54.468
rfoot -2.1673 -9.47473
rtoes -5.02527
lfemur -37.4547 4.77493 -10.9154
ltibia 53.3951
lfoot -23.2659 1.42573
ltoes -17.4882
1515
root 8.47314 15.4466 -13.6261 -352.708 4.13516 -5.95957
lowerback 16.9841 1.26728 -0.530569
upperback 11.5137 1.61317 -1.04312
thorax 2.80922 0.826468 -1.02641
lowerneck -7.34644 0.0811769 -3.04823
upperneck -15.6591 1.05295 6.73947
head -3.94825 0.493479 2.81027
rclavicle 3.26007e-014 -1.11319e-014
rhumerus -18.0497 22.072 -5.22188
rradius 19.61
rwrist -22.7959
rhand -12.0268 4.15554
rfingers 7.12502
rthumb 14.0312 -25.3509
lclavicle 3.26007e-014 -1.11319e-014
lhumerus -1.65484 -0.12 -0.852018
lradius 22.3972
lwrist -15.5803
lhand 13.8888 60.6762
lfingers 7.12502
lthumb 38.8046 86.2519
rfemur -35.4531 -7.49229 14.425
rtibia 54.4088
rfoot -2.9092 -10.154
rtoes -2.42673
lfemur -37.367 4.93972 -11.0991
ltibia 53.7032
lfoot -23.4977 1.9092
ltoes -19.9723
1516
root 8.47057 15.4325 -13.6311 -352.858 4.04121 -5.73923
lowerback 17.0952 1.26037 -0.566807
upperback 11.593 1.59884 -1.04999
thorax 2.83781 0.817798 -1.01296
lowerneck -7.19892 0.0199564 -2.89192
upperneck -15.8015 0.959542 6.6766
head -4.01857 0.435103 2.76394
rclavicle 1.98785e-014 9.54166e-015
rhumerus -17.7264 20.1112 -3.49185
rradius 19.2161
rwrist -21.4198
rhand -13.7711 3.79505
rfingers 7.12502
rthumb 12.3498 -25.8202
lclavicle 1.98785e-014 9.54166e-015
lhumerus -1.81552 4.21187 -1.61637
lradius 21.5632
lwrist -19.0735
lhand 13.056 61.6335
lfingers 7.12502
lthumb 38.0187 87.4276
rfemur -35.2353 -7.62891 14.3256
rtibia 54.3233
rfoot -3.22069 -10.8564
rtoes -5.30168
lfemur -37.2964 5.07554 -11.3356
ltibia 53.9623
lfoot -23.691 1.92675
ltoes -20.4018
1517
root 8.46385 15.4214 -13.6383 -352.8 3.87015 -5.82831
lowerback 17.076 1.23537 -0.41224
upperback 11.5798 1.5843 -0.979728
thorax 2.83475 0.815761 -1.02349
lowerneck -6.9114 0.00334545 -2.77839
upperneck -16.1296 0.939585 6.63762
head -4.18893 0.410838 2.73873
rclavicle -7.15625e-015 0
rhumerus -17.4929 19.1224 -1.97926
rradius 19.1514
rwrist -20.9248
rhand -14.6759 3.55587
rfingers 7.12502
rthumb 11.4774 -26.1099
lclavicle -7.15625e-015 0
lhumerus -2.16179 6.81873 -2.66633
lradius 21.0561
lwrist -21.3781
lhand 12.7702 62.5291
lfingers 7.12502
lthumb 37.7488 88.3962
rfemur -35.3896 -7.66792 14.6401
rtibia 54.3094
rfoot -3.2706 -11.5134
rtoes -9.3856
lfemur -37.5023 5.34144 -11.2243
ltibia 54.2548
lfoot -23.8245 1.57046
ltoes -19.2305
1518
root 8.4547 15.4103 -13.6456 -352.693 3.63852 -5.91679
lowerback 16.9432 1.21384 -0.267575
upperback 11.6269 1.57464 -0.924733
thorax 2.95667 0.816347 -1.04185
lowerneck -7.04598 -0.0122203 -2.76955
upperneck -16.134 0.919899 6.65096
head -4.16461 0.401412 2.74128
rclavicle -2.94201e-014 4.53229e-014
rhumerus -17.3527 20.0783 -0.73272
rradius 19.4374
rwrist -22.7875
rhand -14.9044 3.49553
rfingers 7.12502
rthumb 11.2569 -26.1824
lclavicle -2.94201e-014 4.53229e-014
lhumerus -2.53629 7.82042 -3.92005
lradius 20.745
lwrist -22.0369
lhand 12.6772 63.1196
lfingers 7.12502
lthumb 37.661 89.0103
rfemur -35.5329 -7.53127 14.9079
rtibia 54.2944
rfoot -3.71248 -12.2093
rtoes -9.24027
lfemur -37.7332 5.68635 -11.1225
ltibia 54.5221
lfoot -23.9541 1.45566
ltoes -18.9648
1519
root 8.44562 15.3748 -13.6497 -352.703 3.4656 -5.81718
lowerback 16.959 1.1738 -0.210179
upperback 11.6576 1.52877 -0.941381
thorax 2.98341 0.797 -1.08531
lowerneck -7.26294 0.0470304 -2.64063
upperneck -15.9306 0.983343 6.61305
head -4.05147 0.432062 2.69744
rclavicle -7.15625e-015 2.14687e-014
rhumerus -17.2692 21.3789 0.325966
rradius 19.6898
rwrist -25.1509
rhand -15.0656 3.70957
rfingers 7.12502
rthumb 11.1015 -25.9768
lclavicle -7.15625e-015 2.14687e-014
lhumerus -3.09082 9.21673 -4.93172
lradius 20.7134
lwrist -22.8023
lhand 12.794 63.3404
lfingers 7.12502
lthumb 37.7713 89.2014
rfemur -35.4945 -7.47567 14.896
rtibia 54.3131
rfoot -4.55601 -12.8618
rtoes -8.05489
lfemur -37.8834 5.95627 -11.2106
ltibia 54.8136
lfoot -24.0941 1.34325
ltoes -18.4912
1520
root 8.44025 15.3493 -13.6535 -352.703 3.31208 -5.57571
lowerback 17.0322 1.15553 -0.214151
upperback 11.5769 1.50183 -0.989461
thorax 2.85814 0.784465 -1.1326
lowerneck -7.16278 0.0633857 -2.58795
upperneck -15.7101 1.00605 6.75171
head -3.99202 0.435424 2.73222
rclavicle -6.36111e-015 -7.95139e-016
rhumerus -17.2728 22.4263 1.40259
rradius 20.0046
rwrist -27.2783
rhand -14.7956 3.56329
rfingers 7.12502
rthumb 11.3619 -26.1089
lclavicle -6.36111e-015 -7.95139e-016
lhumerus -3.77506 10.3562 -5.73452
lradius 21.054
lwrist -22.7169
lhand 12.882 63.3777
lfingers 7.12502
lthumb 37.8544 89.2164
rfemur -35.4191 -7.63527 14.7406
rtibia 54.2531
rfoot -5.80803 -13.2255
rtoes -6.96913
lfemur -37.9702 6.12299 -11.4735
ltibia 55.0314
lfoot -24.3019 1.54493
ltoes -19.114
1521
root 8.43366 15.3355 -13.6607 -352.713 3.10269 -5.18272
lowerback 17.0829 1.21938 -0.428769
upperback 11.5632 1.55545 -1.01836
thorax 2.81346 0.800006 -1.05128
lowerneck -6.98849 -0.0493613 -2.76408
upperneck -15.5587 0.879332 7.04176
head -3.9678 0.369851 2.86635
rclavicle -3.18055e-015 -4.77083e-015
rhumerus -17.2644 22.2512 2.58082
rradius 20.2579
rwrist -28.3921
rhand -14.7872 3.74699
rfingers 7.12502
rthumb 11.37 -25.9248
lclavicle -3.18055e-015 -4.77083e-015
lhumerus -4.17625 10.2268 -6.46946
lradius 21.4734
lwrist -20.54
lhand 12.6559 63.3877
lfingers 7.12502
lthumb 37.6408 89.2837
rfemur -35.3197 -7.81401 14.4397
rtibia 54.1339
rfoot -6.87281 -13.5503
rtoes -7.29224
lfemur -37.9736 6.29064 -11.9072
ltibia 55.2326
lfoot -24.5553 1.87945
ltoes -20.0143
1522
root 8.42266 15.3085 -13.6697 -352.691 2.92671 -4.83023
lowerback 17.0816 1.26884 -0.650738
upperback 11.6302 1.59123 -0.997948
thorax 2.88149 0.804523 -0.909264
lowerneck -6.85202 -0.124886 -2.89729
upperneck -15.6622 0.790145 7.10326
head -4.02767 0.326408 2.91731
rclavicle 1.11319e-014 -2.38542e-015
rhumerus -17.069 19.8593 3.82296
rradius 20.2666
rwrist -27.5781
rhand -14.9287 4.23717
rfingers 7.12502
rthumb 11.2335 -25.4421
lclavicle 1.11319e-014 -2.38542e-015
lhumerus -4.47991 10.4568 -6.983
lradius 21.8828
lwrist -18.234
lhand 12.3464 63.6164
lfingers 7.12502
lthumb 37.3483 89.59
rfemur -35.2685 -8.00253 14.2276
rtibia 53.9619
rfoot -7.31513 -14.1385
rtoes -9.37296
lfemur -38.1179 6.54813 -12.2759
ltibia 55.5151
lfoot -24.7866 1.75376
ltoes -19.5415
1523
root 8.40892 15.2711 -13.6779 -352.594 2.80789 -4.79437
lowerback 17.016 1.2335 -0.529577
upperback 11.667 1.56086 -0.919303
thorax 2.95579 0.79281 -0.888282
lowerneck -6.60469 -0.114286 -3.04562
upperneck -16.229 0.875475 7.37672
head -3.79289 0.331877 2.76754
rclavicle 2.26615e-014 5.56597e-015
rhumerus -16.8882 18.6934 4.85006
rradius 20.5192
rwrist -28.4449
rhand -15.072 4.59623
rfingers 7.12502
rthumb 11.0953 -25.0905
lclavicle 2.26615e-014 5.56597e-015
lhumerus -5.00231 11.6362 -7.26758
lradius 22.3218
lwrist -16.9171
lhand 11.7862 63.9057
lfingers 7.12502
lthumb 36.8184 -90.0169
rfemur -35.2964 -8.10209 14.3751
rtibia 53.7542
rfoot -8.41846 -14.6522
rtoes -8.8457
lfemur -38.4911 6.93755 -12.3025
ltibia 55.9411
lfoot -25.0695 1.62645
ltoes -20.1035
